<svg xmlns="http://www.w3.org/2000/svg" viewBox="0 0 800 450" font-family="'Iowan Old Style', Palatino, 'Palatino Linotype', 'Book Antiqua', Georgia, serif">
  <defs>
    <style>
      .cap { font-size:14px; fill:#867f71; letter-spacing:.12em; }
      .sp  { text-anchor:middle; font-weight:600; letter-spacing:.02em; }
      .foot{ font-size:16px; fill:#867f71; letter-spacing:.12em; text-anchor:middle; }
    </style>
  </defs>
  <rect width="800" height="450" fill="#f7f8f9"/>
  <rect x="46" y="40" width="7" height="356" fill="#d3d7dc"/>
  <rect x="747" y="40" width="7" height="356" fill="#d3d7dc"/>
  <g>
    <rect x="110.0" y="116" width="46" height="96" fill="#fff" stroke="#4b463d" stroke-width="1.8"/>
    <line x1="115.0" y1="128" x2="151.0" y2="128" stroke="#4b463d" stroke-width="1.2" opacity=".55"/>
    <line x1="115.0" y1="200" x2="151.0" y2="200" stroke="#4b463d" stroke-width="1.2" opacity=".55"/>
    <text transform="translate(133.0,165.0) rotate(-90)" class="sp" font-size="13" fill="#15130f">CLRS</text>
  </g>
  <g>
    <rect x="160.0" y="84" width="34" height="128" fill="#A51C30" stroke="#7d1524" stroke-width="1.8"/>
    <line x1="165.0" y1="96" x2="189.0" y2="96" stroke="#7d1524" stroke-width="1.2" opacity=".55"/>
    <line x1="165.0" y1="200" x2="189.0" y2="200" stroke="#7d1524" stroke-width="1.2" opacity=".55"/>
    <text transform="translate(177.0,149.0) rotate(-90)" class="sp" font-size="12.5" fill="#fff">TAOCP · Vol. 1</text>
  </g>
  <g>
    <rect x="198.0" y="84" width="34" height="128" fill="#A51C30" stroke="#7d1524" stroke-width="1.8"/>
    <line x1="203.0" y1="96" x2="227.0" y2="96" stroke="#7d1524" stroke-width="1.2" opacity=".55"/>
    <line x1="203.0" y1="200" x2="227.0" y2="200" stroke="#7d1524" stroke-width="1.2" opacity=".55"/>
    <text transform="translate(215.0,149.0) rotate(-90)" class="sp" font-size="12.5" fill="#fff">TAOCP · Vol. 2</text>
  </g>
  <g>
    <rect x="236.0" y="84" width="34" height="128" fill="#A51C30" stroke="#7d1524" stroke-width="1.8"/>
    <line x1="241.0" y1="96" x2="265.0" y2="96" stroke="#7d1524" stroke-width="1.2" opacity=".55"/>
    <line x1="241.0" y1="200" x2="265.0" y2="200" stroke="#7d1524" stroke-width="1.2" opacity=".55"/>
    <text transform="translate(253.0,149.0) rotate(-90)" class="sp" font-size="12.5" fill="#fff">TAOCP · Vol. 3</text>
  </g>
  <g>
    <rect x="274.0" y="116" width="30" height="96" fill="#d3d7dc" stroke="#4b463d" stroke-width="1.8"/>
    <line x1="279.0" y1="128" x2="299.0" y2="128" stroke="#4b463d" stroke-width="1.2" opacity=".55"/>
    <line x1="279.0" y1="200" x2="299.0" y2="200" stroke="#4b463d" stroke-width="1.2" opacity=".55"/>
    <text transform="translate(289.0,165.0) rotate(-90)" class="sp" font-size="13" fill="#15130f">SICP</text>
  </g>
  <g>
    <rect x="308.0" y="104" width="38" height="108" fill="#f6dfe2" stroke="#A51C30" stroke-width="1.8"/>
    <line x1="313.0" y1="116" x2="341.0" y2="116" stroke="#A51C30" stroke-width="1.2" opacity=".55"/>
    <line x1="313.0" y1="200" x2="341.0" y2="200" stroke="#A51C30" stroke-width="1.2" opacity=".55"/>
    <text transform="translate(327.0,159.0) rotate(-90)" class="sp" font-size="13" fill="#15130f">Dragon Book</text>
  </g>
  <g>
    <rect x="350.0" y="97" width="34" height="115" fill="#fff" stroke="#4b463d" stroke-width="1.8"/>
    <line x1="355.0" y1="109" x2="379.0" y2="109" stroke="#4b463d" stroke-width="1.2" opacity=".55"/>
    <line x1="355.0" y1="200" x2="379.0" y2="200" stroke="#4b463d" stroke-width="1.2" opacity=".55"/>
    <text transform="translate(367.0,155.5) rotate(-90)" class="sp" font-size="12.5" fill="#15130f">Concrete Math</text>
  </g>
  <text x="247.0" y="56" class="cap" text-anchor="middle">ALGORITHMS &amp; THEORY</text>
  <g>
    <rect x="430.0" y="111" width="46" height="101" fill="#fff" stroke="#4b463d" stroke-width="1.8"/>
    <line x1="435.0" y1="123" x2="471.0" y2="123" stroke="#4b463d" stroke-width="1.2" opacity=".55"/>
    <line x1="435.0" y1="200" x2="471.0" y2="200" stroke="#4b463d" stroke-width="1.2" opacity=".55"/>
    <text transform="translate(453.0,162.5) rotate(-90)" class="sp" font-size="13" fill="#15130f">AIMA</text>
  </g>
  <g>
    <rect x="480.0" y="86" width="40" height="126" fill="#f6dfe2" stroke="#A51C30" stroke-width="1.8"/>
    <line x1="485.0" y1="98" x2="515.0" y2="98" stroke="#A51C30" stroke-width="1.2" opacity=".55"/>
    <line x1="485.0" y1="200" x2="515.0" y2="200" stroke="#A51C30" stroke-width="1.2" opacity=".55"/>
    <text transform="translate(500.0,150.0) rotate(-90)" class="sp" font-size="12.5" fill="#15130f">Sutton &amp; Barto</text>
  </g>
  <g>
    <rect x="524.0" y="100" width="44" height="112" fill="#d3d7dc" stroke="#4b463d" stroke-width="1.8"/>
    <line x1="529.0" y1="112" x2="563.0" y2="112" stroke="#4b463d" stroke-width="1.2" opacity=".55"/>
    <line x1="529.0" y1="200" x2="563.0" y2="200" stroke="#4b463d" stroke-width="1.2" opacity=".55"/>
    <text transform="translate(546.0,157.0) rotate(-90)" class="sp" font-size="13" fill="#15130f">Deep Learning</text>
  </g>
  <g>
    <rect x="572.0" y="89" width="40" height="123" fill="#fff" stroke="#4b463d" stroke-width="1.8"/>
    <line x1="577.0" y1="101" x2="607.0" y2="101" stroke="#4b463d" stroke-width="1.2" opacity=".55"/>
    <line x1="577.0" y1="200" x2="607.0" y2="200" stroke="#4b463d" stroke-width="1.2" opacity=".55"/>
    <text transform="translate(592.0,151.5) rotate(-90)" class="sp" font-size="12.5" fill="#15130f">Bishop · PRML</text>
  </g>
  <g>
    <rect x="616.0" y="74" width="36" height="138" fill="#f6dfe2" stroke="#A51C30" stroke-width="1.8"/>
    <line x1="621.0" y1="86" x2="647.0" y2="86" stroke="#A51C30" stroke-width="1.2" opacity=".55"/>
    <line x1="621.0" y1="200" x2="647.0" y2="200" stroke="#A51C30" stroke-width="1.2" opacity=".55"/>
    <text transform="translate(634.0,144.0) rotate(-90)" class="sp" font-size="11.5" fill="#15130f">Elements of Stat. Learning</text>
  </g>
  <g>
    <rect x="656.0" y="107" width="34" height="105" fill="#d3d7dc" stroke="#4b463d" stroke-width="1.8"/>
    <line x1="661.0" y1="119" x2="685.0" y2="119" stroke="#4b463d" stroke-width="1.2" opacity=".55"/>
    <line x1="661.0" y1="200" x2="685.0" y2="200" stroke="#4b463d" stroke-width="1.2" opacity=".55"/>
    <text transform="translate(673.0,160.5) rotate(-90)" class="sp" font-size="12.5" fill="#15130f">Koller · PGM</text>
  </g>
  <text x="560.0" y="56" class="cap" text-anchor="middle">AI &amp; MACHINE LEARNING</text>
  <rect x="46" y="212" width="708" height="7" fill="#4b463d"/>
  <rect x="46" y="219" width="708" height="3" fill="#867f71" opacity=".6"/>
  <g>
    <rect x="106.0" y="248" width="40" height="138" fill="#A51C30" stroke="#7d1524" stroke-width="1.8"/>
    <line x1="111.0" y1="260" x2="141.0" y2="260" stroke="#7d1524" stroke-width="1.2" opacity=".55"/>
    <line x1="111.0" y1="374" x2="141.0" y2="374" stroke="#7d1524" stroke-width="1.2" opacity=".55"/>
    <text transform="translate(126.0,318.0) rotate(-90)" class="sp" font-size="12" fill="#fff">Probabilistic Robotics</text>
  </g>
  <g>
    <rect x="150.0" y="269" width="38" height="117" fill="#fff" stroke="#4b463d" stroke-width="1.8"/>
    <line x1="155.0" y1="281" x2="183.0" y2="281" stroke="#4b463d" stroke-width="1.2" opacity=".55"/>
    <line x1="155.0" y1="374" x2="183.0" y2="374" stroke="#4b463d" stroke-width="1.2" opacity=".55"/>
    <text transform="translate(169.0,328.5) rotate(-90)" class="sp" font-size="13" fill="#15130f">Modern Robotics</text>
  </g>
  <g>
    <rect x="192.0" y="254" width="44" height="132" fill="#d3d7dc" stroke="#4b463d" stroke-width="1.8"/>
    <line x1="197.0" y1="266" x2="231.0" y2="266" stroke="#4b463d" stroke-width="1.2" opacity=".55"/>
    <line x1="197.0" y1="374" x2="231.0" y2="374" stroke="#4b463d" stroke-width="1.2" opacity=".55"/>
    <text transform="translate(214.0,321.0) rotate(-90)" class="sp" font-size="12" fill="#15130f">Planning Algorithms</text>
  </g>
  <g>
    <rect x="240.0" y="259" width="36" height="127" fill="#f6dfe2" stroke="#A51C30" stroke-width="1.8"/>
    <line x1="245.0" y1="271" x2="271.0" y2="271" stroke="#A51C30" stroke-width="1.2" opacity=".55"/>
    <line x1="245.0" y1="374" x2="271.0" y2="374" stroke="#A51C30" stroke-width="1.2" opacity=".55"/>
    <text transform="translate(258.0,323.5) rotate(-90)" class="sp" font-size="12" fill="#15130f">Manipulation (MLS)</text>
  </g>
  <g>
    <rect x="280.0" y="283" width="30" height="103" fill="#fff" stroke="#4b463d" stroke-width="1.8"/>
    <line x1="285.0" y1="295" x2="305.0" y2="295" stroke="#4b463d" stroke-width="1.2" opacity=".55"/>
    <line x1="285.0" y1="374" x2="305.0" y2="374" stroke="#4b463d" stroke-width="1.2" opacity=".55"/>
    <text transform="translate(295.0,335.5) rotate(-90)" class="sp" font-size="12.5" fill="#15130f">Underactuated</text>
  </g>
  <g>
    <rect x="314.0" y="266" width="34" height="120" fill="#d3d7dc" stroke="#4b463d" stroke-width="1.8"/>
    <line x1="319.0" y1="278" x2="343.0" y2="278" stroke="#4b463d" stroke-width="1.2" opacity=".55"/>
    <line x1="319.0" y1="374" x2="343.0" y2="374" stroke="#4b463d" stroke-width="1.2" opacity=".55"/>
    <text transform="translate(331.0,327.0) rotate(-90)" class="sp" font-size="12.5" fill="#15130f">State Estimation</text>
  </g>
  <g>
    <rect x="352.0" y="266" width="36" height="120" fill="#fff" stroke="#4b463d" stroke-width="1.8"/>
    <line x1="357.0" y1="278" x2="383.0" y2="278" stroke="#4b463d" stroke-width="1.2" opacity=".55"/>
    <line x1="357.0" y1="374" x2="383.0" y2="374" stroke="#4b463d" stroke-width="1.2" opacity=".55"/>
    <text transform="translate(370.0,327.0) rotate(-90)" class="sp" font-size="12.5" fill="#15130f">Craig · Robotics</text>
  </g>
  <text x="247.0" y="234" class="cap" text-anchor="middle">ROBOTICS</text>
  <g>
    <rect x="434.0" y="248" width="38" height="138" fill="#f6dfe2" stroke="#A51C30" stroke-width="1.8"/>
    <line x1="439.0" y1="260" x2="467.0" y2="260" stroke="#A51C30" stroke-width="1.2" opacity=".55"/>
    <line x1="439.0" y1="374" x2="467.0" y2="374" stroke="#A51C30" stroke-width="1.2" opacity=".55"/>
    <text transform="translate(453.0,318.0) rotate(-90)" class="sp" font-size="12.5" fill="#15130f">Bertsekas · DP</text>
  </g>
  <g>
    <rect x="476.0" y="258" width="40" height="128" fill="#d3d7dc" stroke="#4b463d" stroke-width="1.8"/>
    <line x1="481.0" y1="270" x2="511.0" y2="270" stroke="#4b463d" stroke-width="1.2" opacity=".55"/>
    <line x1="481.0" y1="374" x2="511.0" y2="374" stroke="#4b463d" stroke-width="1.2" opacity=".55"/>
    <text transform="translate(496.0,323.0) rotate(-90)" class="sp" font-size="11.5" fill="#15130f">Convex Optimization</text>
  </g>
  <g>
    <rect x="520.0" y="261" width="36" height="125" fill="#fff" stroke="#4b463d" stroke-width="1.8"/>
    <line x1="525.0" y1="273" x2="551.0" y2="273" stroke="#4b463d" stroke-width="1.2" opacity=".55"/>
    <line x1="525.0" y1="374" x2="551.0" y2="374" stroke="#4b463d" stroke-width="1.2" opacity=".55"/>
    <text transform="translate(538.0,324.5) rotate(-90)" class="sp" font-size="12.5" fill="#15130f">Nonlinear Systems</text>
  </g>
  <g>
    <rect x="560.0" y="266" width="34" height="120" fill="#f6dfe2" stroke="#A51C30" stroke-width="1.8"/>
    <line x1="565.0" y1="278" x2="589.0" y2="278" stroke="#A51C30" stroke-width="1.2" opacity=".55"/>
    <line x1="565.0" y1="374" x2="589.0" y2="374" stroke="#A51C30" stroke-width="1.2" opacity=".55"/>
    <text transform="translate(577.0,327.0) rotate(-90)" class="sp" font-size="12.5" fill="#15130f">Feedback Systems</text>
  </g>
  <g>
    <rect x="598.0" y="266" width="34" height="120" fill="#fff" stroke="#4b463d" stroke-width="1.8"/>
    <line x1="603.0" y1="278" x2="627.0" y2="278" stroke="#4b463d" stroke-width="1.2" opacity=".55"/>
    <line x1="603.0" y1="374" x2="627.0" y2="374" stroke="#4b463d" stroke-width="1.2" opacity=".55"/>
    <text transform="translate(615.0,327.0) rotate(-90)" class="sp" font-size="12.5" fill="#15130f">Nocedal &amp; Wright</text>
  </g>
  <g>
    <rect x="636.0" y="268" width="30" height="118" fill="#d3d7dc" stroke="#4b463d" stroke-width="1.8"/>
    <line x1="641.0" y1="280" x2="661.0" y2="280" stroke="#4b463d" stroke-width="1.2" opacity=".55"/>
    <line x1="641.0" y1="374" x2="661.0" y2="374" stroke="#4b463d" stroke-width="1.2" opacity=".55"/>
    <text transform="translate(651.0,328.0) rotate(-90)" class="sp" font-size="12.5" fill="#15130f">MPC · Rawlings</text>
  </g>
  <g transform="rotate(-11 716.0 386)">
    <rect x="692.0" y="290" width="24" height="96" fill="#fff" stroke="#4b463d" stroke-width="1.8"/>
    <line x1="697.0" y1="302" x2="711.0" y2="302" stroke="#4b463d" stroke-width="1.2" opacity=".55"/>
    <line x1="697.0" y1="374" x2="711.0" y2="374" stroke="#4b463d" stroke-width="1.2" opacity=".55"/>
    <text transform="translate(704.0,339.0) rotate(-90)" class="sp" font-size="12.5" fill="#15130f">Strang</text>
  </g>
  <text x="575.0" y="234" class="cap" text-anchor="middle">CONTROL &amp; OPTIMIZATION</text>
  <rect x="46" y="386" width="708" height="7" fill="#4b463d"/>
  <rect x="46" y="393" width="708" height="3" fill="#867f71" opacity=".6"/>
  <text x="400" y="431" class="foot">CLASSICS ONLY · LINKS, NOT FILES · COMPUTER SCIENCE + ROBOTICS</text>
</svg>
