<svg xmlns="http://www.w3.org/2000/svg" viewBox="0 0 800 450" font-family="'Iowan Old Style', Palatino, 'Palatino Linotype', 'Book Antiqua', Georgia, serif">
  <defs>
    <style>
      .cap { font-size:14px; fill:#867f71; letter-spacing:.12em; }
      .sp  { text-anchor:middle; font-weight:600; letter-spacing:.02em; }
      .foot{ font-size:16px; fill:#867f71; letter-spacing:.12em; text-anchor:middle; }
    </style>
  </defs>
  <rect width="800" height="450" fill="#f7f8f9"/>
  <rect x="46" y="40" width="7" height="352" fill="#d3d7dc"/>
  <rect x="747" y="40" width="7" height="352" fill="#d3d7dc"/>
  <g>
    <rect x="143.0" y="80" width="34" height="128" fill="#A51C30" stroke="#7d1524" stroke-width="1.8"/>
    <line x1="148.0" y1="92" x2="172.0" y2="92" stroke="#7d1524" stroke-width="1.2" opacity=".55"/>
    <line x1="148.0" y1="196" x2="172.0" y2="196" stroke="#7d1524" stroke-width="1.2" opacity=".55"/>
    <text transform="translate(160.0,145.0) rotate(-90)" class="sp" font-size="12.5" fill="#fff">TAOCP · Vol. 1</text>
  </g>
  <g>
    <rect x="181.0" y="80" width="34" height="128" fill="#A51C30" stroke="#7d1524" stroke-width="1.8"/>
    <line x1="186.0" y1="92" x2="210.0" y2="92" stroke="#7d1524" stroke-width="1.2" opacity=".55"/>
    <line x1="186.0" y1="196" x2="210.0" y2="196" stroke="#7d1524" stroke-width="1.2" opacity=".55"/>
    <text transform="translate(198.0,145.0) rotate(-90)" class="sp" font-size="12.5" fill="#fff">TAOCP · Vol. 2</text>
  </g>
  <g>
    <rect x="219.0" y="80" width="34" height="128" fill="#A51C30" stroke="#7d1524" stroke-width="1.8"/>
    <line x1="224.0" y1="92" x2="248.0" y2="92" stroke="#7d1524" stroke-width="1.2" opacity=".55"/>
    <line x1="224.0" y1="196" x2="248.0" y2="196" stroke="#7d1524" stroke-width="1.2" opacity=".55"/>
    <text transform="translate(236.0,145.0) rotate(-90)" class="sp" font-size="12.5" fill="#fff">TAOCP · Vol. 3</text>
  </g>
  <g>
    <rect x="257.0" y="80" width="36" height="128" fill="#A51C30" stroke="#7d1524" stroke-width="1.8"/>
    <line x1="262.0" y1="92" x2="288.0" y2="92" stroke="#7d1524" stroke-width="1.2" opacity=".55"/>
    <line x1="262.0" y1="196" x2="288.0" y2="196" stroke="#7d1524" stroke-width="1.2" opacity=".55"/>
    <text transform="translate(275.0,145.0) rotate(-90)" class="sp" font-size="12.5" fill="#fff">TAOCP · Vol. 4A</text>
  </g>
  <g>
    <rect x="297.0" y="100" width="22" height="108" fill="#fff" stroke="#4b463d" stroke-width="1.8"/>
    <line x1="302.0" y1="112" x2="314.0" y2="112" stroke="#4b463d" stroke-width="1.2" opacity=".55"/>
    <line x1="302.0" y1="196" x2="314.0" y2="196" stroke="#4b463d" stroke-width="1.2" opacity=".55"/>
    <text transform="translate(308.0,155.0) rotate(-90)" class="sp" font-size="12.5" fill="#15130f">MMIX</text>
  </g>
  <text x="231.0" y="62" class="cap" text-anchor="middle">ALGORITHMS</text>
  <g>
    <rect x="365.0" y="72" width="46" height="136" fill="#fff" stroke="#4b463d" stroke-width="1.8"/>
    <line x1="370.0" y1="84" x2="406.0" y2="84" stroke="#4b463d" stroke-width="1.2" opacity=".55"/>
    <line x1="370.0" y1="196" x2="406.0" y2="196" stroke="#4b463d" stroke-width="1.2" opacity=".55"/>
    <text transform="translate(388.0,141.0) rotate(-90)" class="sp" font-size="12.5" fill="#15130f">AI: A Modern Approach</text>
  </g>
  <g>
    <rect x="415.0" y="70" width="40" height="138" fill="#f6dfe2" stroke="#A51C30" stroke-width="1.8"/>
    <line x1="420.0" y1="82" x2="450.0" y2="82" stroke="#A51C30" stroke-width="1.2" opacity=".55"/>
    <line x1="420.0" y1="196" x2="450.0" y2="196" stroke="#A51C30" stroke-width="1.2" opacity=".55"/>
    <text transform="translate(435.0,140.0) rotate(-90)" class="sp" font-size="12.5" fill="#15130f">Reinforcement Learning</text>
  </g>
  <g>
    <rect x="459.0" y="78" width="40" height="130" fill="#d3d7dc" stroke="#4b463d" stroke-width="1.8"/>
    <line x1="464.0" y1="90" x2="494.0" y2="90" stroke="#4b463d" stroke-width="1.2" opacity=".55"/>
    <line x1="464.0" y1="196" x2="494.0" y2="196" stroke="#4b463d" stroke-width="1.2" opacity=".55"/>
    <text transform="translate(479.0,144.0) rotate(-90)" class="sp" font-size="12.5" fill="#15130f">Convex Optimization</text>
  </g>
  <g>
    <rect x="503.0" y="88" width="44" height="120" fill="#fff" stroke="#4b463d" stroke-width="1.8"/>
    <line x1="508.0" y1="100" x2="542.0" y2="100" stroke="#4b463d" stroke-width="1.2" opacity=".55"/>
    <line x1="508.0" y1="196" x2="542.0" y2="196" stroke="#4b463d" stroke-width="1.2" opacity=".55"/>
    <text transform="translate(525.0,149.0) rotate(-90)" class="sp" font-size="13" fill="#15130f">Deep Learning</text>
  </g>
  <g>
    <rect x="551.0" y="76" width="38" height="132" fill="#f6dfe2" stroke="#A51C30" stroke-width="1.8"/>
    <line x1="556.0" y1="88" x2="584.0" y2="88" stroke="#A51C30" stroke-width="1.2" opacity=".55"/>
    <line x1="556.0" y1="196" x2="584.0" y2="196" stroke="#A51C30" stroke-width="1.2" opacity=".55"/>
    <text transform="translate(570.0,143.0) rotate(-90)" class="sp" font-size="12.5" fill="#15130f">DP &amp; Optimal Control</text>
  </g>
  <g>
    <rect x="593.0" y="104" width="28" height="104" fill="#fff" stroke="#4b463d" stroke-width="1.8"/>
    <line x1="598.0" y1="116" x2="616.0" y2="116" stroke="#4b463d" stroke-width="1.2" opacity=".55"/>
    <line x1="598.0" y1="196" x2="616.0" y2="196" stroke="#4b463d" stroke-width="1.2" opacity=".55"/>
    <text transform="translate(607.0,157.0) rotate(-90)" class="sp" font-size="12.5" fill="#15130f">Abstract DP</text>
  </g>
  <g>
    <rect x="625.0" y="96" width="32" height="112" fill="#d3d7dc" stroke="#4b463d" stroke-width="1.8"/>
    <line x1="630.0" y1="108" x2="652.0" y2="108" stroke="#4b463d" stroke-width="1.2" opacity=".55"/>
    <line x1="630.0" y1="196" x2="652.0" y2="196" stroke="#4b463d" stroke-width="1.2" opacity=".55"/>
    <text transform="translate(641.0,153.0) rotate(-90)" class="sp" font-size="12.5" fill="#15130f">Statistical RL</text>
  </g>
  <text x="511.0" y="62" class="cap" text-anchor="middle">LEARNING &amp; CONTROL</text>
  <rect x="46" y="208" width="708" height="7" fill="#4b463d"/>
  <rect x="46" y="215" width="708" height="3" fill="#867f71" opacity=".6"/>
  <g>
    <rect x="97.0" y="272" width="38" height="110" fill="#fff" stroke="#4b463d" stroke-width="1.8"/>
    <line x1="102.0" y1="284" x2="130.0" y2="284" stroke="#4b463d" stroke-width="1.2" opacity=".55"/>
    <line x1="102.0" y1="370" x2="130.0" y2="370" stroke="#4b463d" stroke-width="1.2" opacity=".55"/>
    <text transform="translate(116.0,328.0) rotate(-90)" class="sp" font-size="13" fill="#15130f">Clean Code</text>
  </g>
  <g>
    <rect x="139.0" y="254" width="50" height="128" fill="#d3d7dc" stroke="#4b463d" stroke-width="1.8"/>
    <line x1="144.0" y1="266" x2="184.0" y2="266" stroke="#4b463d" stroke-width="1.2" opacity=".55"/>
    <line x1="144.0" y1="370" x2="184.0" y2="370" stroke="#4b463d" stroke-width="1.2" opacity=".55"/>
    <text transform="translate(164.0,319.0) rotate(-90)" class="sp" font-size="13" fill="#15130f">Code Complete</text>
  </g>
  <g>
    <rect x="193.0" y="264" width="40" height="118" fill="#f6dfe2" stroke="#A51C30" stroke-width="1.8"/>
    <line x1="198.0" y1="276" x2="228.0" y2="276" stroke="#A51C30" stroke-width="1.2" opacity=".55"/>
    <line x1="198.0" y1="370" x2="228.0" y2="370" stroke="#A51C30" stroke-width="1.2" opacity=".55"/>
    <text transform="translate(213.0,324.0) rotate(-90)" class="sp" font-size="12.5" fill="#15130f">Design Patterns</text>
  </g>
  <g>
    <rect x="237.0" y="270" width="36" height="112" fill="#fff" stroke="#4b463d" stroke-width="1.8"/>
    <line x1="242.0" y1="282" x2="268.0" y2="282" stroke="#4b463d" stroke-width="1.2" opacity=".55"/>
    <line x1="242.0" y1="370" x2="268.0" y2="370" stroke="#4b463d" stroke-width="1.2" opacity=".55"/>
    <text transform="translate(255.0,327.0) rotate(-90)" class="sp" font-size="13" fill="#15130f">Refactoring</text>
  </g>
  <g>
    <rect x="277.0" y="252" width="40" height="130" fill="#d3d7dc" stroke="#4b463d" stroke-width="1.8"/>
    <line x1="282.0" y1="264" x2="312.0" y2="264" stroke="#4b463d" stroke-width="1.2" opacity=".55"/>
    <line x1="282.0" y1="370" x2="312.0" y2="370" stroke="#4b463d" stroke-width="1.2" opacity=".55"/>
    <text transform="translate(297.0,318.0) rotate(-90)" class="sp" font-size="12.5" fill="#15130f">Pragmatic Programmer</text>
  </g>
  <g>
    <rect x="321.0" y="282" width="30" height="100" fill="#fff" stroke="#4b463d" stroke-width="1.8"/>
    <line x1="326.0" y1="294" x2="346.0" y2="294" stroke="#4b463d" stroke-width="1.2" opacity=".55"/>
    <line x1="326.0" y1="370" x2="346.0" y2="370" stroke="#4b463d" stroke-width="1.2" opacity=".55"/>
    <text transform="translate(336.0,333.0) rotate(-90)" class="sp" font-size="12.5" fill="#15130f">Soft Skills</text>
  </g>
  <text x="224.0" y="240" class="cap" text-anchor="middle">SOFTWARE CRAFT</text>
  <g>
    <rect x="397.0" y="250" width="52" height="132" fill="#fff" stroke="#4b463d" stroke-width="1.8"/>
    <line x1="402.0" y1="262" x2="444.0" y2="262" stroke="#4b463d" stroke-width="1.2" opacity=".55"/>
    <line x1="402.0" y1="370" x2="444.0" y2="370" stroke="#4b463d" stroke-width="1.2" opacity=".55"/>
    <text transform="translate(423.0,317.0) rotate(-90)" class="sp" font-size="13" fill="#15130f">C++ Primer</text>
  </g>
  <g>
    <rect x="453.0" y="282" width="28" height="100" fill="#f6dfe2" stroke="#A51C30" stroke-width="1.8"/>
    <line x1="458.0" y1="294" x2="476.0" y2="294" stroke="#A51C30" stroke-width="1.2" opacity=".55"/>
    <line x1="458.0" y1="370" x2="476.0" y2="370" stroke="#A51C30" stroke-width="1.2" opacity=".55"/>
    <text transform="translate(467.0,333.0) rotate(-90)" class="sp" font-size="12.5" fill="#15130f">Pro Git</text>
  </g>
  <g>
    <rect x="485.0" y="266" width="36" height="116" fill="#fff" stroke="#4b463d" stroke-width="1.8"/>
    <line x1="490.0" y1="278" x2="516.0" y2="278" stroke="#4b463d" stroke-width="1.2" opacity=".55"/>
    <line x1="490.0" y1="370" x2="516.0" y2="370" stroke="#4b463d" stroke-width="1.2" opacity=".55"/>
    <text transform="translate(503.0,325.0) rotate(-90)" class="sp" font-size="12.5" fill="#15130f">Docker Deep Dive</text>
  </g>
  <g>
    <rect x="525.0" y="264" width="38" height="118" fill="#d3d7dc" stroke="#4b463d" stroke-width="1.8"/>
    <line x1="530.0" y1="276" x2="558.0" y2="276" stroke="#4b463d" stroke-width="1.2" opacity=".55"/>
    <line x1="530.0" y1="370" x2="558.0" y2="370" stroke="#4b463d" stroke-width="1.2" opacity=".55"/>
    <text transform="translate(544.0,324.0) rotate(-90)" class="sp" font-size="13" fill="#15130f">Kubernetes</text>
  </g>
  <g>
    <rect x="567.0" y="274" width="34" height="108" fill="#fff" stroke="#4b463d" stroke-width="1.8"/>
    <line x1="572.0" y1="286" x2="596.0" y2="286" stroke="#4b463d" stroke-width="1.2" opacity=".55"/>
    <line x1="572.0" y1="370" x2="596.0" y2="370" stroke="#4b463d" stroke-width="1.2" opacity=".55"/>
    <text transform="translate(584.0,329.0) rotate(-90)" class="sp" font-size="13" fill="#15130f">MongoDB</text>
  </g>
  <g>
    <rect x="605.0" y="252" width="46" height="130" fill="#f6dfe2" stroke="#A51C30" stroke-width="1.8"/>
    <line x1="610.0" y1="264" x2="646.0" y2="264" stroke="#A51C30" stroke-width="1.2" opacity=".55"/>
    <line x1="610.0" y1="370" x2="646.0" y2="370" stroke="#A51C30" stroke-width="1.2" opacity=".55"/>
    <text transform="translate(628.0,318.0) rotate(-90)" class="sp" font-size="12.5" fill="#15130f">Learning Python</text>
  </g>
  <g>
    <rect x="655.0" y="286" width="22" height="96" fill="#fff" stroke="#4b463d" stroke-width="1.8"/>
    <line x1="660.0" y1="298" x2="672.0" y2="298" stroke="#4b463d" stroke-width="1.2" opacity=".55"/>
    <line x1="660.0" y1="370" x2="672.0" y2="370" stroke="#4b463d" stroke-width="1.2" opacity=".55"/>
    <text transform="translate(666.0,335.0) rotate(-90)" class="sp" font-size="12.5" fill="#15130f">pytest</text>
  </g>
  <g transform="rotate(-11 725.0 382)">
    <rect x="703.0" y="290" width="22" height="92" fill="#d3d7dc" stroke="#4b463d" stroke-width="1.8"/>
    <line x1="708.0" y1="302" x2="720.0" y2="302" stroke="#4b463d" stroke-width="1.2" opacity=".55"/>
    <line x1="708.0" y1="370" x2="720.0" y2="370" stroke="#4b463d" stroke-width="1.2" opacity=".55"/>
    <text transform="translate(714.0,337.0) rotate(-90)" class="sp" font-size="12.5" fill="#15130f">YAML 1.2.2</text>
  </g>
  <text x="561.0" y="240" class="cap" text-anchor="middle">SYSTEMS &amp; TOOLS</text>
  <rect x="46" y="382" width="708" height="7" fill="#4b463d"/>
  <rect x="46" y="389" width="708" height="3" fill="#867f71" opacity=".6"/>
  <text x="400" y="428" class="foot">CURATED TEXTBOOKS · 11 TOPICS · ALGORITHMS TO KUBERNETES</text>
</svg>
