<?xml version="1.0" encoding="UTF-8" standalone="no"?>
<svg
   inkscape:version="1.4.3 (0d15f75042, 2025-12-25)"
   sodipodi:docname="WPI_wordmark.svg"
   id="svg9221"
   version="1.2"
   viewBox="0 0 195.133 73.069998"
   height="73.07"
   width="195.133"
   xmlns:inkscape="http://www.inkscape.org/namespaces/inkscape"
   xmlns:sodipodi="http://sodipodi.sourceforge.net/DTD/sodipodi-0.dtd"
   xmlns="http://www.w3.org/2000/svg"
   xmlns:svg="http://www.w3.org/2000/svg"
   xmlns:rdf="http://www.w3.org/1999/02/22-rdf-syntax-ns#"
   xmlns:cc="http://creativecommons.org/ns#"
   xmlns:dc="http://purl.org/dc/elements/1.1/">
  <metadata
     id="metadata9225">
    <rdf:RDF>
      <cc:Work
         rdf:about="">
        <dc:format>image/svg+xml</dc:format>
        <dc:type
           rdf:resource="http://purl.org/dc/dcmitype/StillImage" />
      </cc:Work>
    </rdf:RDF>
  </metadata>
  <sodipodi:namedview
     units="px"
     inkscape:current-layer="g13621"
     inkscape:window-maximized="1"
     inkscape:window-y="0"
     inkscape:window-x="0"
     inkscape:cy="132.13314"
     inkscape:cx="135.74087"
     inkscape:zoom="1.1087302"
     showgrid="false"
     id="namedview9223"
     inkscape:window-height="892"
     inkscape:window-width="1536"
     inkscape:pageshadow="2"
     inkscape:pageopacity="0"
     guidetolerance="10"
     gridtolerance="10"
     objecttolerance="10"
     borderopacity="1"
     bordercolor="#666666"
     pagecolor="#ffffff"
     inkscape:showpageshadow="2"
     inkscape:pagecheckerboard="0"
     inkscape:deskcolor="#d1d1d1" />
  <defs
     id="defs2760" />
  <g
     transform="matrix(1.8085385,0,0,1.8085385,-81.714607,-315.97639)"
     inkscape:label="Logo"
     id="surface58244">
    <g
       transform="matrix(1.000008,0,0,1.0000054,-62.712694,-11.44359)"
       inkscape:label="WPI"
       id="g13621"
       style="stroke-width:0.999999">
      <path
         style="fill:#c20f2e;fill-opacity:1;fill-rule:nonzero;stroke:none;stroke-width:0.999999"
         d="m 215.55078,188.61719 0.23828,-0.0234 v -2.4375 h -17.83984 v 2.4375 l 0.24219,0.0234 c 4.45703,0.40625 4.94531,0.61718 4.94531,5.64843 v 23.51954 c 0,5.03125 -0.48828,5.24609 -4.94531,5.64843 l -0.24219,0.0234 v 2.4375 h 17.83984 v -2.4375 l -0.23828,-0.0234 c -4.47266,-0.40625 -4.88672,-0.58984 -4.88672,-5.64843 v -23.51954 c 0,-5.05859 0.41406,-5.24218 4.88672,-5.64843"
         id="path4014" />
      <path
         style="fill:#c20f2e;fill-opacity:1;fill-rule:nonzero;stroke:none;stroke-width:0.999999"
         d="m 180.84375,207.20703 c -1.5625,0 -2.77734,-0.29297 -3.41406,-0.56641 v -15.15234 c 0,-1.11719 0.15234,-1.72266 0.52343,-2.04297 0.28125,-0.28515 1.08204,-0.58594 2.46875,-0.58594 4.89063,0 7.81641,3.32813 7.81641,8.90235 0,8.98828 -6.16016,9.44531 -7.39453,9.44531 m 11.1875,-18.64844 c -2.33594,-1.64062 -5.70313,-2.40234 -10.58594,-2.40234 h -30.0625 v 2.4375 c 2.54688,0.12109 4.55469,1.38672 4.55469,2.92969 0,0.13281 -0.0156,0.27343 -0.0469,0.40625 -0.0625,0.39453 -0.15625,0.85156 -0.27734,1.36718 -0.84375,3.53516 -3.50391,13.47657 -5.91016,21.13282 l -10.10937,-27.85157 h -2.91797 l -8.90625,27.69141 -6.65625,-22.72656 c 0,0 -0.96875,-2.61328 4.01953,-2.95703 v -2.42969 h -17.23828 v 2.42578 c 0,0 4.09375,-0.13281 5.28516,3.41406 l 10.58594,34.5625 h 3.10156 l 9.16797,-27.62109 9.99609,27.62109 h 3.10156 c 5.22266,-17.625 8.76563,-28.34375 10.00391,-31.78906 0.78906,-2.33594 1.36328,-3.71094 2.1914,-4.57422 0.89844,-0.92578 2.23438,-1.51562 3.72657,-1.51562 2.71093,0 4.90625,1.70703 4.90625,3.86328 v 25.24219 c 0,5.03125 -0.48828,5.24609 -4.94532,5.64843 l -0.24218,0.0234 v 2.4375 h 18.44531 v -2.44141 l -0.24219,-0.0195 c -5.07812,-0.40625 -5.54687,-0.58984 -5.54687,-5.64843 v -7.72657 c 0.44531,0.0859 0.88672,0.16016 1.33203,0.21094 0.91797,0.125 1.90234,0.125 2.625,0.125 0.71875,0 1.70312,0 2.62109,-0.125 6.00781,-0.69922 12.42188,-4.39844 12.42188,-12.6875 0,-3.86719 -1.48047,-6.90234 -4.39844,-9.02344"
         id="path4016" />
    </g>
  </g>
</svg>
